<?xml version="1.0" encoding="UTF-8"?>
<svg version="1.1" xmlns="http://www.w3.org/2000/svg" width="1080" height="1080">
<path d="M0 0 C14.67758859 14.67758859 12.69640154 42.82114662 14.64257812 62.20019531 C14.7251889 63.01409225 14.80779968 63.8279892 14.89291382 64.66654968 C15.04896701 66.20731936 15.20260087 67.74833665 15.35342407 69.28962708 C15.68972267 72.59989659 16.0513486 75.8033669 17 79 C17.40089844 78.27337158 17.80179687 77.54674316 18.21484375 76.7980957 C18.78332031 75.76773193 19.35179687 74.73736816 19.9375 73.67578125 C20.40505959 72.82810432 20.40505959 72.82810432 20.88206482 71.96330261 C22.6440621 68.76905577 24.40716515 65.5754267 26.17211914 62.3828125 C29.54902875 56.2718431 32.92058792 50.15844841 36.25106812 44.02201843 C37.6423097 41.45956526 39.03888827 38.90003815 40.43579102 36.34066772 C41.40569934 34.55843458 42.36802059 32.77207896 43.33007812 30.9855957 C59.15764542 2.02189807 59.15764542 2.02189807 74 -4 C80.1270271 -5.62186012 86.05537853 -5.15853246 92 -3 C95.53389813 -0.74432034 97.43097394 1.14425532 99 5 C99.16345882 7.13628101 99.16345882 7.13628101 99.03904724 9.47114563 C98.97559034 10.79820794 98.97559034 10.79820794 98.91085148 12.15207958 C98.82434157 13.59140834 98.82434157 13.59140834 98.73608398 15.05981445 C98.68310622 16.07494519 98.63012846 17.09007593 98.57554531 18.13596821 C98.39826535 21.42499623 98.20203229 24.7124042 98 28 C97.93539204 29.06393856 97.87078407 30.12787712 97.80421829 31.22405624 C97.31436598 39.16630008 96.77328932 47.10473976 96.22265625 55.04296875 C96.04950379 57.55642116 95.87636253 60.06987434 95.70323181 62.58332825 C95.34325092 67.7961915 94.98059399 73.00886121 94.61645508 78.22143555 C94.19679774 84.23633921 93.78515833 90.25173988 93.37762266 96.26747531 C92.9819124 102.10128207 92.57682139 107.93440792 92.16827202 113.76732826 C91.99680784 116.23393683 91.82818383 118.70074455 91.66246223 121.16774559 C91.43153287 124.5944623 91.18990368 128.02026255 90.94555664 131.44604492 C90.87951233 132.46151398 90.81346802 133.47698303 90.74542236 134.52322388 C90.64249626 135.92043419 90.64249626 135.92043419 90.53749084 137.34587097 C90.45371233 138.55654377 90.45371233 138.55654377 90.36824131 139.79167461 C89.97050868 142.17685801 89.18480098 143.90464702 88 146 C83.17619198 146.0246519 78.35242033 146.04283693 73.52856445 146.05493164 C71.88630536 146.05997174 70.24405077 146.06680378 68.60180664 146.07543945 C66.24624521 146.08751926 63.89074291 146.09323139 61.53515625 146.09765625 C60.79660904 146.10281754 60.05806183 146.10797882 59.2971344 146.11329651 C57.53101912 146.1134925 55.76502854 146.06194719 54 146 C53 145 53 145 52.87158203 142.77227783 C52.90190799 134.79308899 53.30829117 126.87967238 53.875 118.921875 C53.96378418 117.62928772 54.05256836 116.33670044 54.14404297 115.00494385 C54.3771639 111.61165952 54.61515098 108.21873447 54.85424805 104.8258667 C55.09855325 101.34635902 55.33812373 97.86652547 55.578125 94.38671875 C56.04752072 87.59082463 56.52207196 80.79529927 57 74 C47.74345977 90.88214348 47.74345977 90.88214348 38.8125 107.9375 C23.52460386 137.48002056 23.52460386 137.48002056 14.375 143.3125 C13.61960937 143.80363281 12.86421875 144.29476562 12.0859375 144.80078125 C7.25413446 147.57861558 2.42266535 147.47002236 -3 147 C-7.95888909 145.01644436 -11.57621258 141.00627066 -13.84959412 136.20611572 C-15.63164794 131.53018403 -16.61791501 127.03444784 -17.09765625 122.046875 C-17.2165345 120.94484741 -17.2165345 120.94484741 -17.33781433 119.82055664 C-17.58946825 117.46463969 -17.82623353 115.10750496 -18.0625 112.75 C-18.23250369 111.13043968 -18.4034056 109.51097341 -18.57519531 107.89160156 C-18.98917025 103.96484677 -19.39112493 100.03699857 -19.78717041 96.10839844 C-20.08737945 93.13437457 -20.3937423 90.1609868 -20.69921875 87.1875 C-21.14686741 82.7929508 -21.58015823 78.39729008 -22 74 C-25.46300496 82.09475005 -28.61108213 90.25260618 -31.5390625 98.5546875 C-32.37498701 100.90365046 -33.2109249 103.25260865 -34.046875 105.6015625 C-35.34252935 109.25483446 -36.63688422 112.9085638 -37.93066406 116.5625 C-39.19281135 120.12352445 -40.45951738 123.68290339 -41.7265625 127.2421875 C-42.30321152 128.87823441 -42.30321152 128.87823441 -42.89151001 130.54733276 C-47.50861461 143.50861461 -47.50861461 143.50861461 -50 146 C-52.59359322 146.08851529 -55.16039691 146.11525945 -57.75390625 146.09765625 C-58.52935287 146.0962413 -59.3047995 146.09482635 -60.10374451 146.09336853 C-62.59003494 146.08775345 -65.0762366 146.07519846 -67.5625 146.0625 C-69.24413933 146.05748694 -70.92578006 146.0529237 -72.60742188 146.04882812 C-76.73831566 146.03777913 -80.86914276 146.02050445 -85 146 C-84.41000929 141.90212386 -83.49849777 138.20787472 -82.0925293 134.31665039 C-81.6959613 133.21132965 -81.29939331 132.10600891 -80.89080811 130.9671936 C-80.45633362 129.77274628 -80.02185913 128.57829895 -79.57421875 127.34765625 C-79.11400864 126.07114982 -78.65424164 124.79448357 -78.19488525 123.51766968 C-76.95602792 120.07837599 -75.71074909 116.6414405 -74.46409225 113.2049675 C-73.16287391 109.61515832 -71.86710562 106.02338239 -70.57055664 102.43188477 C-68.17165164 95.78986764 -65.76699981 89.14994678 -63.35982609 82.51092243 C-61.58703685 77.62112367 -59.81690199 72.73037283 -58.04882812 67.83886719 C-55.77414614 61.5460129 -53.4963928 55.25428192 -51.21572876 48.96359253 C-50.37282905 46.63838874 -49.5305103 44.31297425 -48.68881226 41.98733521 C-34.13590442 1.80140241 -34.13590442 1.80140241 -25.5625 -2.875 C-16.47164947 -5.7457949 -7.60734844 -6.39708846 0 0 Z " fill="#E32D22" transform="translate(127,456)"/>
<path d="M0 0 C9.04554624 7.05466047 14.67217486 16.26750049 17.3828125 27.3359375 C18.10463609 35.81736469 17.08644045 43.28409226 15.3671875 51.578125 C15.1325177 52.73788849 14.8978479 53.89765198 14.65606689 55.09255981 C14.15930294 57.53573227 13.65814227 59.97801442 13.15283203 62.41943359 C12.3871604 66.12738177 11.63989849 69.8387048 10.89453125 73.55078125 C10.40735387 75.93512165 9.91910738 78.3192439 9.4296875 80.703125 C9.20972107 81.79930145 8.98975464 82.89547791 8.76312256 84.02487183 C5.11508933 101.46236374 -1.5334733 116.10288029 -16.59765625 126.50390625 C-33.48034341 136.98706245 -54.27759596 141.58315891 -73.8671875 137.0859375 C-82.77957109 134.45161417 -90.18771945 130.10926209 -97.3671875 124.2734375 C-96.13191831 119.74411714 -93.64658499 117.32051605 -90.31640625 114.21484375 C-87.8026963 111.71120879 -85.61209314 109.0206456 -83.3671875 106.2734375 C-82.42617188 106.82773437 -81.48515625 107.38203125 -80.515625 107.953125 C-79.25798146 108.68518617 -78.00015942 109.41694075 -76.7421875 110.1484375 C-75.81599609 110.69564453 -75.81599609 110.69564453 -74.87109375 111.25390625 C-65.18235426 116.86317648 -54.34978606 118.21657004 -43.3984375 115.55078125 C-36.24033846 112.60403048 -33.37454579 107.73898788 -30.37268066 100.88946533 C-28.60814359 96.29860559 -27.60324195 91.56504404 -26.5703125 86.765625 C-26.21256744 85.14009201 -26.21256744 85.14009201 -25.84759521 83.48171997 C-25.34862075 81.19853938 -24.85474515 78.91423908 -24.36572266 76.62890625 C-23.62297519 73.17534854 -22.85350009 69.72848983 -22.08203125 66.28125 C-16.68274017 45.69495079 -16.68274017 45.69495079 -21.125 25.7265625 C-24.00645895 22.3557992 -26.74454649 21.47978491 -31.0703125 20.9296875 C-38.53436215 20.54691572 -44.29716591 21.81847523 -50.3671875 26.2734375 C-57.26321958 32.97626179 -60.78144453 42.4105024 -61.40625 51.88671875 C-61.31581699 57.41217591 -60.0117043 63.02150123 -56.3671875 67.2734375 C-51.64094939 70.13816201 -47.14084524 70.69744885 -41.7421875 69.86328125 C-37.42915789 68.79211765 -33.4340466 67.03525372 -29.3671875 65.2734375 C-28.3771875 64.9434375 -27.3871875 64.6134375 -26.3671875 64.2734375 C-27.17786274 68.52378768 -27.99104242 72.77365492 -28.8046875 77.0234375 C-29.03478516 78.23 -29.26488281 79.4365625 -29.50195312 80.6796875 C-29.72431641 81.83984375 -29.94667969 83 -30.17578125 84.1953125 C-30.38001709 85.26362305 -30.58425293 86.33193359 -30.79467773 87.43261719 C-30.98360596 88.37008789 -31.17253418 89.30755859 -31.3671875 90.2734375 C-31.51816895 91.03269531 -31.66915039 91.79195312 -31.82470703 92.57421875 C-32.3671875 94.2734375 -32.3671875 94.2734375 -34.23828125 95.5390625 C-45.3904898 99.81662194 -58.91066299 100.3869085 -69.984375 95.52734375 C-83.15072224 88.59882332 -90.66007177 79.39478468 -95.3671875 65.2734375 C-96.52639445 45.85197016 -92.70137705 30.61417953 -79.6796875 15.5859375 C-59.99176254 -5.05366963 -25.79444693 -17.80788177 0 0 Z " fill="#E32D22" transform="translate(773.3671875,504.7265625)"/>
<path d="M0 0 C-0.78191925 4.2518535 -1.57721041 8.50109811 -2.375 12.75 C-2.59671875 13.9565625 -2.8184375 15.163125 -3.046875 16.40625 C-3.26601563 17.56640625 -3.48515625 18.7265625 -3.7109375 19.921875 C-3.90993652 20.99018555 -4.10893555 22.05849609 -4.31396484 23.15917969 C-4.93304158 25.72273019 -5.70487771 27.7178886 -7 30 C-7.88147705 30.0093457 -8.7629541 30.01869141 -9.67114258 30.02832031 C-12.99480605 30.07277821 -16.31726535 30.13458318 -19.64038086 30.20751953 C-21.06864986 30.23545241 -22.4970655 30.25680215 -23.92553711 30.27099609 C-41.40451831 30.45492083 -52.4802434 35.99026166 -65.54296875 47.36328125 C-68.81195658 50.87133655 -71.34017158 55.01025737 -74 59 C-53.87 59 -33.74 59 -13 59 C-13.70740488 65.3666439 -14.54502222 71.19426218 -15.9375 77.375 C-16.19176758 78.56416016 -16.19176758 78.56416016 -16.45117188 79.77734375 C-16.62068359 80.53917969 -16.79019531 81.30101562 -16.96484375 82.0859375 C-17.1155835 82.7670459 -17.26632324 83.4481543 -17.42163086 84.14990234 C-18 86 -18 86 -20 89 C-22.55630493 89.36076355 -22.55630493 89.36076355 -25.82666016 89.34057617 C-27.04777496 89.34034958 -28.26888977 89.34012299 -29.52700806 89.33988953 C-30.86436323 89.32456852 -32.2017147 89.30892051 -33.5390625 89.29296875 C-34.90383438 89.28737422 -36.26861228 89.28310344 -37.63339233 89.28010559 C-41.22730107 89.2686454 -44.82084667 89.23916871 -48.41461182 89.20599365 C-52.0810454 89.17531771 -55.7475376 89.16160559 -59.4140625 89.14648438 C-66.60954064 89.11429964 -73.80471946 89.06308972 -81 89 C-80.23379474 90.90994177 -79.4602143 92.81692579 -78.68359375 94.72265625 C-78.25361084 95.78492432 -77.82362793 96.84719238 -77.38061523 97.94165039 C-74.26138129 104.85140169 -69.16820905 111.78487056 -62.02685547 114.84570312 C-54.36310381 117.35497167 -46.88980804 117.54835403 -38.875 117.6875 C-37.52340615 117.72075453 -36.17184227 117.75525136 -34.8203125 117.79101562 C-31.54695888 117.87284947 -28.27385146 117.94221113 -25 118 C-25.7837064 122.0640775 -26.57835263 126.12594107 -27.375 130.1875 C-27.59671875 131.33798828 -27.8184375 132.48847656 -28.046875 133.67382812 C-28.26601563 134.78564453 -28.48515625 135.89746094 -28.7109375 137.04296875 C-28.90993652 138.06414795 -29.10893555 139.08532715 -29.31396484 140.13745117 C-29.97688586 142.90355401 -30.87324867 145.39255501 -32 148 C-83.08382277 148.45102533 -83.08382277 148.45102533 -102 130 C-115.16573313 114.96246136 -119.02237901 100.06635168 -118.18652344 80.57226562 C-116.9971301 64.16984652 -108.16540382 48.5560818 -98 36 C-97.40960937 35.24589844 -96.81921875 34.49179687 -96.2109375 33.71484375 C-81.39250716 15.83814162 -57.97853361 2.79705017 -34.97460938 0.21386719 C-23.36897839 -0.62054949 -11.62498707 -0.20745607 0 0 Z " fill="#E32D22" transform="translate(682,454)"/>
<path d="M0 0 C10.12143633 7.50559214 15.77348794 16.63435832 17.8125 29.15234375 C19.4127427 45.31974425 14.29508824 59.12546628 4.3125 71.71484375 C3.65507813 72.54886719 2.99765625 73.38289062 2.3203125 74.2421875 C-8.78549599 87.44304778 -25.37962327 97.35462339 -42.76464844 98.89941406 C-57.54967789 99.80038692 -70.90983374 97.44754974 -82.3125 87.40234375 C-90.87984056 77.70772154 -96.1846528 67.80821999 -95.9609375 54.51953125 C-94.1491815 35.93609109 -85.34062336 20.24212155 -71.05126953 8.35351562 C-51.25029553 -7.08193569 -22.41779868 -14.69371741 0 0 Z M-54.22265625 30.83984375 C-59.74363862 37.90670119 -62.17851138 46.52516636 -61.5625 55.46484375 C-60.72897055 60.96032281 -58.20200904 64.3806334 -54.0625 68.02734375 C-49.13373407 71.52936164 -44.60355371 71.36706757 -38.6875 70.71484375 C-29.90821772 68.07977367 -23.93349344 62.14317176 -19.3046875 54.40234375 C-15.87543172 47.11217762 -14.96746121 38.15090216 -17.41796875 30.40625 C-19.74322329 25.99301179 -23.26994516 22.92362117 -27.6875 20.71484375 C-38.49020371 19.40201517 -46.90030318 22.84555711 -54.22265625 30.83984375 Z " fill="#E32D22" transform="translate(531.6875,504.28515625)"/>
<path d="M0 0 C8.87389274 7.08326795 14.24822768 16.90416459 15.81640625 28.15625 C16.90038377 44.94636993 11.07236209 59.91165821 0.24243164 72.65405273 C-11.9234057 86.29690657 -28.82220168 96.19402336 -47.3046875 97.3203125 C-61.36387995 97.83476439 -73.84572294 95.18352979 -84.625 85.6875 C-93.19234056 75.99287779 -98.4971528 66.09337624 -98.2734375 52.8046875 C-96.4616815 34.22124734 -87.65312336 18.5272778 -73.36376953 6.63867188 C-52.72161525 -9.45250462 -22.491007 -16.67829742 0 0 Z M-56.53515625 29.125 C-62.05613862 36.19185744 -64.49101138 44.81032261 -63.875 53.75 C-63.04147055 59.24547906 -60.51450904 62.66578965 -56.375 66.3125 C-51.44623407 69.81451789 -46.91605371 69.65222382 -41 69 C-32.22071772 66.36492992 -26.24599344 60.42832801 -21.6171875 52.6875 C-18.18793172 45.39733387 -17.27996121 36.43605841 -19.73046875 28.69140625 C-22.05572329 24.27816804 -25.58244516 21.20877742 -30 19 C-40.80270371 17.68717142 -49.21280318 21.13071336 -56.53515625 29.125 Z " fill="#E32D22" transform="translate(333,506)"/>
<path d="M0 0 C9.20778582 7.66116555 14.31777163 17.41243851 15.8125 29.25 C16.8472655 45.42383463 10.84291782 59.77239183 0.625 72.03125 C-10.81446589 84.96874118 -25.72297965 94.29184587 -43 97 C-57.19367647 97.85217939 -70.23867695 96.87257704 -82 88 C-82.82242188 87.39671875 -83.64484375 86.7934375 -84.4921875 86.171875 C-93.49332192 78.37650002 -97.3850155 66.6258078 -98.3125 55.125 C-98.00900476 37.09738264 -89.19326588 21.67942641 -76.52880859 9.41894531 C-56.41940476 -9.24535604 -23.41704504 -17.31885623 0 0 Z M-56.53515625 29.12109375 C-61.98809461 36.11539601 -64.41750786 44.36182332 -63.875 53.1875 C-63.09904647 59.00715149 -60.76818234 62.44231556 -56.375 66.3125 C-51.44623407 69.81451789 -46.91605371 69.65222382 -41 69 C-32.22071772 66.36492992 -26.24599344 60.42832801 -21.6171875 52.6875 C-18.18793172 45.39733387 -17.27996121 36.43605841 -19.73046875 28.69140625 C-22.05572329 24.27816804 -25.58244516 21.20877742 -30 19 C-40.80674469 17.68668033 -49.20375774 21.13418196 -56.53515625 29.12109375 Z " fill="#E32D22" transform="translate(901,506)"/>
<path d="M0 0 C1.39120471 0.00015906 2.78241534 0.00585033 4.17358398 0.01586914 C4.90463852 0.01728409 5.63569305 0.01869904 6.38890076 0.02015686 C8.73253406 0.02577131 11.07607313 0.03832617 13.41967773 0.05102539 C15.00496282 0.05603853 16.59024939 0.06060176 18.17553711 0.06469727 C22.06945383 0.07574542 25.96329979 0.09301967 29.85717773 0.11352539 C29.20662533 7.2845571 27.87525554 14.15668289 26.29467773 21.17602539 C25.49030273 24.78540039 24.68592773 28.39477539 23.85717773 32.11352539 C32.76717773 32.11352539 41.67717773 32.11352539 50.85717773 32.11352539 C50.22181513 37.83178881 49.56551234 43.05518618 48.35717773 48.61352539 C47.97045898 50.42336914 47.97045898 50.42336914 47.57592773 52.26977539 C46.85717773 55.11352539 46.85717773 55.11352539 45.85717773 56.11352539 C43.78455697 56.20119651 41.70897479 56.22048412 39.63452148 56.21118164 C38.37446289 56.20795898 37.1144043 56.20473633 35.81616211 56.20141602 C34.47566665 56.19305942 33.13517186 56.18459446 31.79467773 56.17602539 C30.45027832 56.17101199 29.10587714 56.16644881 27.76147461 56.16235352 C24.45999833 56.15052027 21.1586097 56.1340351 17.85717773 56.11352539 C17.79348999 56.99947388 17.79348999 56.99947388 17.72851562 57.90332031 C17.16437574 64.5901714 15.85070609 70.90862057 14.29467773 77.42602539 C10.88418031 90.91658869 10.88418031 90.91658869 12.75952148 104.38305664 C13.75131735 106.27549055 13.75131735 106.27549055 15.85717773 107.11352539 C17.30370193 107.26419753 18.75597113 107.36213575 20.20874023 107.42993164 C21.05952148 107.47182617 21.91030273 107.5137207 22.78686523 107.55688477 C23.67631836 107.59620117 24.56577148 107.63551758 25.48217773 107.67602539 C26.82795898 107.74080078 26.82795898 107.74080078 28.20092773 107.80688477 C30.41952056 107.913094 32.63822653 108.01513733 34.85717773 108.11352539 C33.90697718 113.99668203 32.93682132 119.87760307 31.85717773 125.73852539 C31.71280273 126.53516602 31.56842773 127.33180664 31.41967773 128.15258789 C30.85717773 130.11352539 30.85717773 130.11352539 28.85717773 132.11352539 C17.36072679 133.46604903 0.8389635 132.27619312 -9.14282227 126.11352539 C-16.1214387 120.50630109 -21.36060951 114.06337872 -23.14282227 105.11352539 C-24.22029128 93.0559726 -21.57316326 81.79324519 -19.02172852 70.09399414 C-18.59700687 68.09881762 -18.1734376 66.10339548 -17.7509613 64.10774231 C-16.86923778 59.95665739 -15.97845312 55.80766885 -15.08007812 51.66015625 C-13.92648287 46.33403257 -12.78878195 41.00467614 -11.65683079 35.67391491 C-10.57534135 30.58365798 -9.48645153 25.49499369 -8.39672852 20.40649414 C-8.18900881 19.43381277 -7.9812891 18.4611314 -7.76727486 17.45897484 C-7.18243643 14.72728168 -6.5923769 11.9967746 -6.00048828 9.26660156 C-5.73938515 8.04263672 -5.73938515 8.04263672 -5.4730072 6.79394531 C-4.0211717 0.14525323 -4.0211717 0.14525323 0 0 Z " fill="#E32D22" transform="translate(384.142822265625,469.886474609375)"/>
<path d="M0 0 C1.18613892 0.00785522 1.18613892 0.00785522 2.39624023 0.01586914 C3.67724609 0.02070313 3.67724609 0.02070313 4.98413086 0.02563477 C5.88196289 0.03401367 6.77979492 0.04239258 7.70483398 0.05102539 C8.6065332 0.05553711 9.50823242 0.06004883 10.43725586 0.06469727 C12.67234712 0.07652315 14.90730835 0.09300319 17.14233398 0.11352539 C18.80512843 5.2176729 17.42049325 9.73399776 16.26733398 14.80102539 C15.98696289 16.10136719 15.98696289 16.10136719 15.70092773 17.42797852 C14.30525874 23.78767588 14.30525874 23.78767588 13.14233398 26.11352539 C22.05233398 26.11352539 30.96233398 26.11352539 40.14233398 26.11352539 C38.14233398 38.11352539 38.14233398 38.11352539 36.14233398 44.11352539 C27.23233398 44.11352539 18.32233398 44.11352539 9.14233398 44.11352539 C8.48233398 48.07352539 7.82233398 52.03352539 7.14233398 56.11352539 C6.21869091 60.46905328 5.17803811 64.78239905 4.14233398 69.11352539 C-2.78766602 69.11352539 -9.71766602 69.11352539 -16.85766602 69.11352539 C-15.20766602 60.86352539 -13.55766602 52.61352539 -11.85766602 44.11352539 C-20.76766602 44.11352539 -29.67766602 44.11352539 -38.85766602 44.11352539 C-37.53766602 38.17352539 -36.21766602 32.23352539 -34.85766602 26.11352539 C-25.94766602 26.11352539 -17.03766602 26.11352539 -7.85766602 26.11352539 C-6.25299969 17.93185051 -6.25299969 17.93185051 -4.65673828 9.74853516 C-4.4562085 8.735896 -4.25567871 7.72325684 -4.04907227 6.67993164 C-3.84483643 5.63780518 -3.64060059 4.59567871 -3.43017578 3.52197266 C-2.63119386 0.1607971 -2.63119386 0.1607971 0 0 Z " fill="#E32D22" transform="translate(959.857666015625,473.886474609375)"/>
<path d="M0 0 C5.76297087 2.59723832 9.95621124 7.02920171 12.72265625 12.67578125 C14.72748645 18.9089806 14.75446669 26.68011417 12.08203125 32.72265625 C8.89505212 38.05689083 4.18950229 42.07165978 -1.35546875 44.78515625 C-8.88748482 46.16858777 -14.29882662 45.71865363 -21.1171875 41.96484375 C-26.96334283 37.85566156 -30.14481117 32.35002295 -31.41796875 25.34765625 C-32.13159813 19.04393003 -30.55475423 13.78475108 -27.41796875 8.34765625 C-19.81641025 -0.12621224 -11.28995356 -3.04591639 0 0 Z M-24.29296875 8.34765625 C-28.9789149 14.96310964 -29.05946538 20.3089016 -28.41796875 28.34765625 C-26.49234438 34.0231807 -22.83612623 37.4668671 -18.16796875 41.09765625 C-12.77892266 43.54722265 -7.52180331 43.92546232 -1.79296875 42.41015625 C4.25721107 40.110876 7.7549178 35.36636543 11.01953125 29.97265625 C12.50215611 23.05374024 12.15154865 16.78119681 8.9921875 10.39453125 C5.93984601 5.96398571 1.64096611 3.03396787 -3.41796875 1.34765625 C-11.79600529 0.43991162 -18.61129421 1.82118462 -24.29296875 8.34765625 Z " fill="#E32D22" transform="translate(1025.41796875,438.65234375)"/>
<path d="M0 0 C1.953125 0.15234375 1.953125 0.15234375 4 1 C5.046875 3.06640625 5.046875 3.06640625 5.75 5.5625 C5.99234375 6.38878906 6.2346875 7.21507812 6.484375 8.06640625 C6.65453125 8.70449219 6.8246875 9.34257812 7 10 C8.53521956 7.69717067 9.58357909 5.82137765 10.625 3.3125 C11.07875 2.219375 11.5325 1.12625 12 0 C13.32 0.33 14.64 0.66 16 1 C16.495 9.415 16.495 9.415 17 18 C15.68 18 14.36 18 13 18 C12.67 15.36 12.34 12.72 12 10 C10.68 12.97 9.36 15.94 8 19 C4.39345961 16.59563974 4.14547068 15.05320393 3 11 C2.34 13.64 1.68 16.28 1 19 C0.01 18.67 -0.98 18.34 -2 18 C-1.85980308 15.18711295 -1.71312045 12.37483115 -1.5625 9.5625 C-1.52318359 8.76005859 -1.48386719 7.95761719 -1.44335938 7.13085938 C-1.11328125 1.11328125 -1.11328125 1.11328125 0 0 Z " fill="#E32D22" transform="translate(1016,452)"/>
<path d="M0 0 C4.29 0 8.58 0 13 0 C13.33 0.99 13.66 1.98 14 3 C12.02 3 10.04 3 8 3 C8 8.28 8 13.56 8 19 C7.01 18.67 6.02 18.34 5 18 C5 13.05 5 8.1 5 3 C3.35 3 1.7 3 0 3 C0 2.01 0 1.02 0 0 Z " fill="#E32D22" transform="translate(1000,452)"/>
</svg>
